<?xml version="1.0" encoding="UTF-8"?>
<svg id="Layer_1" data-name="Layer 1" xmlns="http://www.w3.org/2000/svg" viewBox="0 0 592 226">
  <path d="M459.38,39.25c-16.9,34.63-34.12,70.42-50.82,104.96-5.57,11.64-11.41,23.64-16.89,35.05-1.14,2.39-2.5,5.25-3.51,7.44-.97,2.12-1.65,3.41-.95,4,1.22.88,5.09.5,7.03.15,4.11-.52,5.82-4.04,7.22-7.48,2.77-6.43,6.57-12.22,11.14-16.8,16.4-16.25,42.2-17.86,63.58-8.7,18.41,8.05,35.33,28.03,54.03,32.73,11,2.77,26.9,1.98,36.22-4.78,2.39-2.21-.39-2.18-2.11-1.86-10.42,2.49-23.3-1.21-30.13-9.91-3.61-4.68-14.52-26.37-19.87-37.55-12.51-26.35-45.62-92.37-51.19-102.16-.58-1.53-3.28,4.23-3.61,4.64l-.15.27ZM476.34,102.1c10.82,22.59,19.75,40.63,28.25,58.7,1.63,3.45-1.74.31-3.78-1.04-19.46-15.34-44.19-24.15-66.89-14.12-4.52,1.81-11.03,5.05-15.18,7.03-.86.38-1.1.39-1.04.08.18-.75,1.08-2.82,3.25-7.53,10.36-22.18,20.53-43.66,30.99-66.24,1.67-3.52,3.84-7.99,4.99-10.18.51-.8,1.21-2.9,1.98-1.7,2.98,5.26,13.13,26.05,17.26,34.66l.17.35Z"/>
  <path d="M92.58,35.03c-19.97,3.8-40.13,14.92-51.33,29.37-6.25,8.3-12.11,20.54-14.77,29.71-10.06,41.2,11.59,79.76,52.56,93.12,28.95,9.33,62.62,4.54,84.63-15.86,6.37-5.72,12.27-11.99,16.6-19.15,6.54-11.07,10.42-24.75,10.62-37.64.67-36.68-24.66-67.16-60.25-77.77-8.03-2.01-16.32-2.35-24.77-2.58-4.69-.03-8.56.01-12.95.73l-.34.06ZM118.98,44.43c13.1,2.54,24.54,10.47,33.28,20.47,12.08,13.37,18.26,29.72,17.59,47.61-.04,7.02-.29,13.71-2.11,20.36-2.7,8.95-6.89,18.17-12.45,25.62-8.13,9.86-18.35,18.84-30.44,22.17-11.14,3.7-22.65,3.59-34.06.02-28.82-8.5-46.48-38.48-46.18-67.75.05-13.21,4.06-28.17,10.75-39.26,13.04-21.43,38.31-34.89,63.25-29.31l.38.08Z"/>
  <path d="M219.82,112.63c.01,10.91-.08,63.59.06,75.62.17,2.2,7.26,1.13,9.73,1.4,3.24-.21,8.4.64,9.24-1.2.4-12.93-.03-60.78.13-73.04.19-18.58-.38-60.26.22-69.42.63-.78,2.37-.56,3.46-.6,9.85.17,22.52.23,32.85.41,6.32.17,14.75-.02,20.69,1.25,2.35.57,5.18,1.97,7.66,3.47,9.88,5.63,16.65,16.02,16.19,27.34.11,7.29.3,14.98-3.6,21.4-4.05,7.27-11.58,13.83-18.8,16.56-3.8,1.16-7.46,1.12-11.81,1.34-8,.27-16.71.17-24.74.64-3.5.22-6.67.62-6.83,1.24-.07.44.5.65.86.88,1.65.85,5.81,2.24,8.58,3.69,10.86,6.17,21.9,21.82,32.28,34.89,7.39,9.69,14.67,18.54,25.07,24.7,6.67,4.36,13.75,6.46,21.58,6.95,6.88.42,12.99.29,19.83-2.19,3.44-1.09,10.13-4.38,11.32-6.91.46-1.85-4.82.15-6.15.42-14.65,3.5-25.19-1.62-36.73-13.01-10.31-10.38-19.71-23.43-29.53-33.85-2.29-2.61-5.4-5.39-7.47-8.01-1.62-2.3-.41-3.16,2.85-3.63,2.44-.38,5.17-.79,7.61-1.33,18.75-4.22,32.31-14.71,35.49-32.07.55-6.93.91-14.49-.84-21.26-6.24-18.77-26.55-30.74-45.96-32.04-18.94-.9-49.81-.83-71.48-.71-1.38.1-1.66.3-1.72,1.43.03,9.26-.05,65-.01,75.54v.09Z"/>
</svg>